<?xml version="1.0"?><svg width="720" height="693.3333333333333" xmlns="http://www.w3.org/2000/svg">
 <metadata id="metadata1327">image/svg+xml</metadata>
 <defs>.fil8 {fill:none;fill-rule:nonzero}
    .fil0 {fill:black;fill-rule:nonzero}
    .fil7 {fill:white;fill-rule:nonzero}
    .fil1 {fill:#000099;fill-rule:nonzero}
    .fil6 {fill:#660000;fill-rule:nonzero}
    .fil4 {fill:#8A8A01;fill-rule:nonzero}
    .fil3 {fill:#939301;fill-rule:nonzero}
    .fil5 {fill:red;fill-rule:nonzero}
    .fil2 {fill:#FFCC00;fill-rule:nonzero}.str4 {stroke:black;stroke-width:1.13778}
    .str3 {stroke:black;stroke-width:1.13808}
    .str2 {stroke:black;stroke-width:1.13818}
    .str8 {stroke:black;stroke-width:1.13828}
    .str6 {stroke:black;stroke-width:1.13848}
    .str5 {stroke:black;stroke-width:1.13858}
    .str7 {stroke:black;stroke-width:1.13878}
    .str1 {stroke:black;stroke-width:1.13888}
    .str0 {stroke:black;stroke-width:2.40736}
    .fil0 {fill:#0000DC}
    .fil2 {fill:red}
    .fil1 {fill:#FFF000}
    .fil4 {fill:#FFF020}
    .fil3 {fill:#FFF02D}
    .fil5 {fill:black;fill-rule:nonzero}.str4 {stroke:black;stroke-width:1.13778}
    .str3 {stroke:black;stroke-width:1.13808}
    .str2 {stroke:black;stroke-width:1.13818}
    .str8 {stroke:black;stroke-width:1.13828}
    .str6 {stroke:black;stroke-width:1.13848}
    .str5 {stroke:black;stroke-width:1.13858}
    .str7 {stroke:black;stroke-width:1.13878}
    .str1 {stroke:black;stroke-width:1.13888}
    .str0 {stroke:black;stroke-width:2.40736}
    .fil0 {fill:#0000DC}
    .fil2 {fill:red}
    .fil1 {fill:#FFF000}
    .fil4 {fill:#FFF020}
    .fil3 {fill:#FFF02D}
    .fil5 {fill:black;fill-rule:nonzero}.str4 {
  <A in_rurl="http://www.textsrv.com/click?v=VVM6MTY4ODc6MTI4MDpzdHJva2U6MGYwZWViNGI5OGQ3YmYzYWJiOGNkNWNlMjA4MzNkOGE6ei0xMTE3LTI1ODMyOnd3dy5jbGtlci5jb20%3D" href="#" style="text-decoration:underline" id="_GPLITA_0" title="Powered by Text-Enhance">stroke</A>:black;stroke-width:1.13778}
    .str3 {stroke:black;stroke-width:1.13808}
    .str2 {stroke:black;stroke-width:1.13818}
    .str8 {stroke:black;stroke-width:1.13828}
    .str6 {stroke:black;stroke-width:1.13848}
    .str5 {stroke:black;stroke-width:1.13858}
    .str7 {stroke:black;stroke-width:1.13878}
    .str1 {stroke:black;stroke-width:1.13888}
    .str0 {stroke:black;stroke-width:2.40736}
    .fil0 {fill:#0000DC}
    .fil2 {fill:red}
    .fil1 {fill:#FFF000}
    .fil4 {fill:#FFF020}
    .fil3 {fill:#FFF02D}
    .fil5 {fill:black;fill-rule:nonzero}.fil8 {fill:none;fill-rule:nonzero}
    .fil0 {fill:black;fill-rule:nonzero}
    .fil7 {fill:white;fill-rule:nonzero}
    .fil1 {fill:#000099;fill-rule:nonzero}
    .fil6 {fill:#660000;fill-rule:nonzero}
    .fil4 {fill:#8A8A01;fill-rule:nonzero}
    .fil3 {fill:#939301;fill-rule:nonzero}
    .fil5 {fill:red;fill-rule:nonzero}
    .fil2 {fill:#FFCC00;fill-rule:nonzero}.str4 {stroke:black;stroke-width:1.13778}
    .str3 {stroke:black;stroke-width:1.13808}
    .str2 {stroke:black;stroke-width:1.13818}
    .str8 {stroke:black;stroke-width:1.13828}
    .str6 {stroke:black;stroke-width:1.13848}
    .str5 {stroke:black;stroke-width:1.13858}
    .str7 {stroke:black;stroke-width:1.13878}
    .str1 {stroke:black;stroke-width:1.13888}
    .str0 {stroke:black;stroke-width:2.40736}
    .fil0 {fill:#0000DC}
    .fil2 {fill:red}
    .fil1 {fill:#FFF000}
    .fil4 {fill:#FFF020}
    .fil3 {fill:#FFF02D}
    .fil5 {fill:black;fill-rule:nonzero}.fil8 {fill:none;fill-rule:nonzero}
    .fil0 {fill:black;fill-rule:nonzero}
    .fil7 {fill:white;fill-rule:nonzero}
    .fil1 {fill:#000099;fill-rule:nonzero}
    .fil6 {fill:#660000;fill-rule:nonzero}
    .fil4 {fill:#8A8A01;fill-rule:nonzero}
    .fil3 {fill:#939301;fill-rule:nonzero}
    .fil5 {fill:red;fill-rule:nonzero}
    .fil2 {fill:#FFCC00;fill-rule:nonzero}.fil8 {fill:none;fill-rule:nonzero}
    .fil0 {fill:black;fill-rule:nonzero}
    .fil7 {fill:white;fill-rule:nonzero}
    .fil1 {fill:#000099;fill-rule:nonzero}
    .fil6 {fill:#660000;fill-rule:nonzero}
    .fil4 {fill:#8A8A01;fill-rule:nonzero}
    .fil3 {fill:#939301;fill-rule:nonzero}
    .fil5 {fill:red;fill-rule:nonzero}
    .fil2 {fill:#FFCC00;fill-rule:nonzero}.str4 {stroke:black;stroke-width:1.13778}
    .str3 {stroke:black;stroke-width:1.13808}
    .str2 {stroke:black;stroke-width:1.13818}
    .str8 {stroke:black;stroke-width:1.13828}
    .str6 {stroke:black;stroke-width:1.13848}
    .str5 {stroke:black;stroke-width:1.13858}
    .str7 {stroke:black;stroke-width:1.13878}
    .str1 {stroke:black;stroke-width:1.13888}
    .str0 {stroke:black;stroke-width:2.40736}
    .fil0 {fill:#0000DC}
    .fil2 {fill:red}
    .fil1 {fill:#FFF000}
    .fil4 {fill:#FFF020}
    .fil3 {fill:#FFF02D}
    .fil5 {fill:black;fill-rule:nonzero}.fil8 {fill:none;fill-rule:nonzero}
    .fil0 {fill:black;fill-rule:nonzero}
    .fil7 {fill:white;fill-rule:nonzero}
    .fil1 {fill:#000099;fill-rule:nonzero}
    .fil6 {fill:#660000;fill-rule:nonzero}
    .fil4 {fill:#8A8A01;fill-rule:nonzero}
    .fil3 {fill:#939301;fill-rule:nonzero}
    .fil5 {fill:red;fill-rule:nonzero}
    .fil2 {fill:#FFCC00;fill-rule:nonzero}.str4 {stroke:black;stroke-width:1.13778}
    .str3 {stroke:black;stroke-width:1.13808}
    .str2 {stroke:black;stroke-width:1.13818}
    .str8 {stroke:black;stroke-width:1.13828}
    .str6 {stroke:black;stroke-width:1.13848}
    .str5 {stroke:black;stroke-width:1.13858}
    .str7 {stroke:black;stroke-width:1.13878}
    .str1 {stroke:black;stroke-width:1.13888}
    .str0 {stroke:black;stroke-width:2.40736}
    .fil0 {fill:#0000DC}
    .fil2 {fill:red}
    .fil1 {fill:#FFF000}
    .fil4 {fill:#FFF020}
    .fil3 {fill:#FFF02D}
    .fil5 {fill:black;fill-rule:nonzero}.str4 {stroke:black;stroke-width:1.13778}
    .str3 {stroke:black;stroke-width:1.13808}
    .str2 {stroke:black;stroke-width:1.13818}
    .str8 {stroke:black;stroke-width:1.13828}
    .str6 {stroke:black;stroke-width:1.13848}
    .str5 {stroke:black;stroke-width:1.13858}
    .str7 {stroke:black;stroke-width:1.13878}
    .str1 {stroke:black;stroke-width:1.13888}
    .str0 {stroke:black;stroke-width:2.40736}
    .fil0 {fill:#0000DC}
    .fil2 {fill:red}
    .fil1 {fill:#FFF000}
    .fil4 {fill:#FFF020}
    .fil3 {fill:#FFF02D}
    .fil5 {fill:black;fill-rule:nonzero}.str4 {stroke:black;stroke-width:1.13778}
    .str3 {stroke:black;stroke-width:1.13808}
    .str2 {stroke:black;stroke-width:1.13818}
    .str8 {stroke:black;stroke-width:1.13828}
    .str6 {stroke:black;stroke-width:1.13848}
    .str5 {stroke:black;stroke-width:1.13858}
    .str7 {stroke:black;stroke-width:1.13878}
    .str1 {stroke:black;stroke-width:1.13888}
    .str0 {stroke:black;stroke-width:2.40736}
    .fil0 {fill:#0000DC}
    .fil2 {fill:red}
    .fil1 {fill:#FFF000}
    .fil4 {fill:#FFF020}
    .fil3 {fill:#FFF02D}
    .fil5 {fill:black;fill-rule:nonzero}.fil8 {fill:none;fill-rule:nonzero}
    .fil0 {fill:black;fill-rule:nonzero}
    .fil7 {fill:white;fill-rule:nonzero}
    .fil1 {fill:#000099;fill-rule:nonzero}
    .fil6 {fill:#660000;fill-rule:nonzero}
    .fil4 {fill:#8A8A01;fill-rule:nonzero}
    .fil3 {fill:#939301;fill-rule:nonzero}
    .fil5 {fill:red;fill-rule:nonzero}
    .fil2 {fill:#FFCC00;fill-rule:nonzero}.str4 {stroke:black;stroke-width:1.13778}
    .str3 {stroke:black;stroke-width:1.13808}
    .str2 {stroke:black;stroke-width:1.13818}
    .str8 {stroke:black;stroke-width:1.13828}
    .str6 {stroke:black;stroke-width:1.13848}
    .str5 {stroke:black;stroke-width:1.13858}
    .str7 {stroke:black;stroke-width:1.13878}
    .str1 {stroke:black;stroke-width:1.13888}
    .str0 {stroke:black;stroke-width:2.40736}
    .fil0 {fill:#0000DC}
    .fil2 {fill:red}
    .fil1 {fill:#FFF000}
    .fil4 {fill:#FFF020}
    .fil3 {fill:#FFF02D}
    .fil5 {fill:black;fill-rule:nonzero}.fil8 {fill:none;fill-rule:nonzero}
    .fil0 {fill:black;fill-rule:nonzero}
    .fil7 {fill:white;fill-rule:nonzero}
    .fil1 {fill:#000099;fill-rule:nonzero}
    .fil6 {fill:#660000;fill-rule:nonzero}
    .fil4 {fill:#8A8A01;fill-rule:nonzero}
    .fil3 {fill:#939301;fill-rule:nonzero}
    .fil5 {fill:red;fill-rule:nonzero}
    .fil2 {fill:#FFCC00;fill-rule:nonzero}.str4 {stroke:black;stroke-width:1.13778}
    .str3 {stroke:black;stroke-width:1.13808}
    .str2 {stroke:black;stroke-width:1.13818}
    .str8 {stroke:black;stroke-width:1.13828}
    .str6 {stroke:black;stroke-width:1.13848}
    .str5 {stroke:black;stroke-width:1.13858}
    .str7 {stroke:black;stroke-width:1.13878}
    .str1 {stroke:black;stroke-width:1.13888}
    .str0 {stroke:black;stroke-width:2.40736}
    .fil0 {fill:#0000DC}
    .fil2 {fill:red}
    .fil1 {fill:#FFF000}
    .fil4 {fill:#FFF020}
    .fil3 {fill:#FFF02D}
    .fil5 {fill:black;fill-rule:nonzero}.fil8 {fill:none;fill-rule:nonzero}
    .fil0 {fill:black;fill-rule:nonzero}
    .fil7 {fill:white;fill-rule:nonzero}
    .fil1 {fill:#000099;fill-rule:nonzero}
    .fil6 {fill:#660000;fill-rule:nonzero}
    .fil4 {fill:#8A8A01;fill-rule:nonzero}
    .fil3 {fill:#939301;fill-rule:nonzero}
    .fil5 {fill:red;fill-rule:nonzero}
    .fil2 {fill:#FFCC00;fill-rule:nonzero}.fil8 {fill:none;fill-rule:nonzero}
    .fil0 {fill:black;fill-rule:nonzero}
    .fil7 {fill:white;fill-rule:nonzero}
    .fil1 {fill:#000099;fill-rule:nonzero}
    .fil6 {fill:#660000;fill-rule:nonzero}
    .fil4 {fill:#8A8A01;fill-rule:nonzero}
    .fil3 {fill:#939301;fill-rule:nonzero}
    .fil5 {fill:red;fill-rule:nonzero}
    .fil2 {fill:#FFCC00;fill-rule:nonzero}.str4 {stroke:black;stroke-width:1.13778}
    .str3 {stroke:black;stroke-width:1.13808}
    .str2 {stroke:black;stroke-width:1.13818}
    .str8 {stroke:black;stroke-width:1.13828}
    .str6 {stroke:black;stroke-width:1.13848}
    .str5 {stroke:black;stroke-width:1.13858}
    .str7 {stroke:black;stroke-width:1.13878}
    .str1 {stroke:black;stroke-width:1.13888}
    .str0 {stroke:black;stroke-width:2.40736}
    .fil0 {fill:#0000DC}
    .fil2 {fill:red}
    .fil1 {fill:#FFF000}
    .fil4 {fill:#FFF020}
    .fil3 {fill:#FFF02D}
    .fil5 {fill:black;fill-rule:nonzero}.fil8 {fill:none;fill-rule:nonzero}
    .fil0 {fill:black;fill-rule:nonzero}
    .fil7 {fill:white;fill-rule:nonzero}
    .fil1 {fill:#000099;fill-rule:nonzero}
    .fil6 {fill:#660000;fill-rule:nonzero}
    .fil4 {fill:#8A8A01;fill-rule:nonzero}
    .fil3 {fill:#939301;fill-rule:nonzero}
    .fil5 {fill:red;fill-rule:nonzero}
    .fil2 {fill:#FFCC00;fill-rule:nonzero}.str4 {stroke:black;stroke-width:1.13778}
    .str3 {stroke:black;stroke-width:1.13808}
    .str2 {stroke:black;stroke-width:1.13818}
    .str8 {stroke:black;stroke-width:1.13828}
    .str6 {stroke:black;stroke-width:1.13848}
    .str5 {stroke:black;stroke-width:1.13858}
    .str7 {stroke:black;stroke-width:1.13878}
    .str1 {stroke:black;stroke-width:1.13888}
    .str0 {stroke:black;stroke-width:2.40736}
    .fil0 {fill:#0000DC}
    .fil2 {fill:red}
    .fil1 {fill:#FFF000}
    .fil4 {fill:#FFF020}
    .fil3 {fill:#FFF02D}
    .fil5 {fill:black;fill-rule:nonzero}.str4 {stroke:black;stroke-width:1.13778}
    .str3 {stroke:black;stroke-width:1.13808}
    .str2 {stroke:black;stroke-width:1.13818}
    .str8 {stroke:black;stroke-width:1.13828}
    .str6 {stroke:black;stroke-width:1.13848}
    .str5 {stroke:black;stroke-width:1.13858}
    .str7 {stroke:black;stroke-width:1.13878}
    .str1 {stroke:black;stroke-width:1.13888}
    .str0 {stroke:black;stroke-width:2.40736}
    .fil0 {fill:#0000DC}
    .fil2 {fill:red}
    .fil1 {fill:#FFF000}
    .fil4 {fill:#FFF020}
    .fil3 {fill:#FFF02D}
    .fil5 {fill:black;fill-rule:nonzero}.str4 {stroke:black;stroke-width:1.13778}
    .str3 {stroke:black;stroke-width:1.13808}
    .str2 {stroke:black;stroke-width:1.13818}
    .str8 {stroke:black;stroke-width:1.13828}
    .str6 {stroke:black;stroke-width:1.13848}
    .str5 {stroke:black;stroke-width:1.13858}
    .str7 {stroke:black;stroke-width:1.13878}
    .str1 {stroke:black;stroke-width:1.13888}
    .str0 {stroke:black;stroke-width:2.40736}
    .fil0 {fill:#0000DC}
    .fil2 {fill:red}
    .fil1 {fill:#FFF000}
    .fil4 {fill:#FFF020}
    .fil3 {fill:#FFF02D}
    .fil5 {fill:black;fill-rule:nonzero}.fil8 {fill:none;fill-rule:nonzero}
    .fil0 {fill:black;fill-rule:nonzero}
    .fil7 {fill:white;fill-rule:nonzero}
    .fil1 {fill:#000099;fill-rule:nonzero}
    .fil6 {fill:#660000;fill-rule:nonzero}
    .fil4 {fill:#8A8A01;fill-rule:nonzero}
    .fil3 {fill:#939301;fill-rule:nonzero}
    .fil5 {fill:red;fill-rule:nonzero}
    .fil2 {fill:#FFCC00;fill-rule:nonzero}</defs>
 <g>
  <title>Layer 1</title>
  <g id="g1372">
   <g fill-rule="evenodd" transform="matrix(3.24899 0 0 3.19535 -708.508 -52.195)" id="g2190">
    <g id="Layer_x0020_1">
     <metadata id="CorelCorpID_0Corel-Layer"/>
    </g>
   </g>
  </g>
  <g id="Ebene_1">
   <path fill="#000000" d="m246.223267,97.782707c-2.291382,1.164658 -6.083374,0.869629 -8.715088,0.297821c-1.168701,-2.039917 -4.344849,-3.472961 -5.204346,-5.803696c-2.047852,-1.451279 -4.368652,-0.862625 -5.821777,-1.175934c0,-2.295624 4.049561,-0.570389 3.773926,-2.59346c3.791992,-0.583054 7.252197,-1.742096 11.038696,-2.903961l-0.571045,-0.318924l2.596558,0c-0.275635,0 -0.275635,0 -0.548584,0.318924c2.025391,0.864014 3.180176,1.723816 4.33374,2.903961c1.189819,3.19899 0.867676,6.381119 -0.88208,9.275269m-61.891968,26.139893c-1.182983,0.597076 -2.070313,1.153427 -2.340454,1.452682l-5.814819,0c1.45166,-1.153442 2.631714,-2.33638 3.499634,-4.352432c0.559814,-1.747711 -1.477051,-3.471558 -2.047974,-5.81636c-1.45166,-0.266953 -2.899048,-1.153442 -4.928711,-0.266953c-0.316406,-1.743484 2.911499,-0.292206 2.589478,-2.337769c2.042358,-0.296432 4.67981,-0.296432 6.972534,0l-0.270142,0c-0.571167,1.723831 3.173218,1.153442 2.624634,2.604721c1.170288,1.164688 1.735718,2.915207 1.441772,4.928452c0.293945,1.768799 -0.893188,2.339188 -1.725952,3.787659zm518.942932,101.075401c2.03949,-4.38475 -2.02832,-7.856308 -3.477051,-11.05249c-4.951172,-5.514328 -10.76593,-8.98584 -15.717041,-13.636124c-4.073425,0.280975 -5.229675,-3.196182 -8.118774,-3.790482c0,0.297821 0.281372,0.892136 -0.292542,1.159042c3.181641,2.03714 6.681213,4.952362 9.888184,7.559875c1.423462,3.485596 4.658569,3.790466 5.221191,6.66777c0.86084,2.039917 2.017029,5.236099 0.292603,7.287292c-0.855225,-0.594299 -2.906006,-0.316116 -2.906006,-1.746307c-4.360352,-0.304886 -6.987854,-1.487839 -11.066895,0c-2.306763,1.746307 -3.468628,5.511475 -2.905945,8.411224c-0.270081,3.763779 4.382874,4.627808 2.905945,8.718918c0,1.153442 -1.738525,1.723816 -1.136536,2.330765c-2.03949,1.723846 -5.83728,0.862595 -8.720703,0.570389c-0.607666,-2.039948 -3.786499,-1.177338 -5.83728,-1.747711c-0.590759,-0.570435 0.886169,-0.292236 0,-0.86264c-6.669983,-1.482162 -13.379333,-4.381912 -20.325012,-6.399384l0.562683,-0.570404c-4.647339,0 -9.013367,-2.039932 -13.373718,-3.215836c-7.834595,-1.142227 -15.401978,-0.864029 -23.554443,-0.280975c-4.059387,0.886459 -8.726379,2.320908 -11.913696,5.220657c-7.572937,7.285904 -11.90802,16.270355 -16.867615,24.416046c-2.017029,0.29364 -1.158997,3.765198 -3.493896,2.903961c1.161804,-4.650269 5.814758,-9.032181 5.814758,-14.230408c0.590759,-3.193344 -1.136536,-7.551453 -2.613403,-9.59137c-4.337891,-3.193375 -7.243835,-8.718887 -11.334167,-12.203125c-3.775208,-1.723801 -7.269165,-4.334167 -10.743408,-6.376877c0,0 0.298218,-0.304886 0.568298,-0.304886c-0.886169,-0.556351 -2.045227,-0.859802 -2.906006,-0.289413c-0.270081,2.013229 2.906006,0.594299 2.635925,2.637009c0.860779,0 1.431885,0.559174 2.292664,0.559174c4.084717,4.63623 7.859924,7.856308 11.632385,12.479889c-1.158997,0.864029 1.178711,2.039932 0.610474,2.634216c1.136475,4.917221 -0.610474,9.278091 -4.090332,12.4841c-3.201355,3.16951 -7.269165,5.511475 -10.44519,8.984436c-11.632324,13.948029 -4.956787,31.9422 -0.298218,47.074554c4.343506,12.772125 11.632385,26.394226 11.03595,39.167725c-1.746948,7.84082 0.275696,16.867432 -5.809143,23.516907c-2.905945,0.304871 -2.905945,3.207428 -5.226807,3.207428l0.568298,0.597107c-1.747009,0.866821 -5.513794,0 -5.226868,2.014648l-14.828064,0.303436c-4.090332,-2.024475 -6.669922,-2.634216 -10.771606,-4.355225c0.303955,-0.303467 0.303955,-0.303467 0.596436,-0.303467c-7.564514,-4.660095 -13.384888,-10.455383 -19.194031,-15.091614l0.295288,-0.316132c-3.769592,-2.902527 -6.993469,-6.383942 -10.768616,-8.713287l0.300964,-0.262726l-2.914368,-1.153412l0.300964,-0.304901c-5.544678,-2.042725 -9.888245,-7.551422 -16.288147,-9.008301l-7.55896,-1.153442l0.292603,0c-8.158813,-0.585846 -16.879517,-4.057404 -24.72113,-5.222076c0,-0.110992 0.164612,-0.110992 0.327637,-0.110992c-2.015564,-1.275665 -4.747131,-0.802216 -6.703674,-1.639557c0.292603,0 0.292603,-0.292206 0.568298,-0.292206c-1.752625,-1.175934 -4.354797,-0.567596 -6.382996,-1.445679c0.2995,-0.299255 0.575256,-0.299255 0.856506,-0.299255c-1.741272,-0.561951 -3.469971,-1.152008 -5.50946,-1.445648c0.081604,0 0.129395,-0.051971 0.199585,-0.075836c-4.289917,-0.691254 -5.309814,-3.395721 -10.080811,-3.395721l0.292603,-0.316101c-6.105957,-2.586426 -12.237305,-4.336975 -17.739746,-6.666321l0.298218,-0.574615c-1.182983,-0.578827 -2.911621,0 -4.09021,-1.469543l0.292358,-0.273956c-2.905762,-0.29364 -4.934204,-2.903992 -7.266357,-2.903992l0.568359,-0.597076c-5.221313,-1.721008 -10.473267,-5.497437 -14.241455,-8.107788l0.292603,-0.30484l-2.337891,-1.456909l0.316528,-0.26413c-0.884644,-1.181519 -3.492554,-0.292206 -2.907349,-2.042755l0.305298,0c-2.913086,-1.469543 -4.665649,-3.190552 -7.297363,-4.372101c0.293945,-0.27536 0,-0.872437 0.293945,-1.142181c-4.091797,-3.787659 -9.286255,-6.105774 -12.488892,-10.477844c-1.157715,-4.625031 0.562622,-10.729401 3.773804,-13.911499c2.599365,-2.039948 4.946899,-4.941116 7.527832,-6.097382l-0.267212,-0.313293c4.657227,-0.570358 6.699585,-2.599091 11.363892,-3.18074l0,-0.292221l2.286987,-0.861206c0.877563,-2.039932 -2.286987,-0.597061 -1.74707,-2.637009c-3.751221,-2.01326 -6.973633,-2.877258 -11.014771,-4.331375l0,-0.316116l-3.792236,-1.723816c0.265869,-0.864014 -1.452881,-1.458328 -1.1604,-2.344833c1.1604,-0.863998 2.903198,-0.559143 4.063599,-0.266937c3.792236,2.039948 8.152588,3.471573 12.220337,3.763809c5.520752,-1.445648 10.151245,-0.292236 15.09668,-2.016052c2.907471,1.723816 8.169434,1.723816 11.341187,0.864014c1.775269,-0.571823 -0.862183,-1.458328 -0.862183,-2.344833c-2.30957,-1.129532 -4.360229,-3.169495 -6.69812,-4.651657l0.322144,-0.265549c-3.797729,-2.634201 -8.428101,-1.747711 -12.225952,-2.634201c0,0 0,-0.266937 0.270142,-0.266937c-1.430542,-1.16748 -3.768188,-0.597107 -5.498413,-1.456924c-0.314941,-1.180115 -3.790527,-2.903946 -5.237915,-3.474365c0.877686,-1.177307 -2.320801,-0.605484 -1.454468,-2.62294c0.87915,-0.88652 2.613403,-0.570404 3.786499,-0.278198c2.320801,1.431595 6.388672,1.723831 9.587158,2.611755c2.614868,-1.750519 7.267822,-0.316101 9.020508,-2.611755c8.128418,-0.608322 17.154419,0.571808 24.679565,-0.88649c1.190002,-2.30687 -2.57959,-3.193375 -3.762512,-4.053177c-1.430481,-0.304886 -3.470093,0 -4.337891,-1.168915l0.269958,-0.318924c-2.607666,-0.859787 -4.95813,-2.013229 -7.2677,-3.166687c0.140747,-0.280975 0.275757,-0.316101 0.410767,-0.316101c-6.200195,-0.134857 -11.885498,-2.864624 -17.850952,-2.586456c-1.724243,-1.166077 -4.360229,-3.206024 -6.406738,-5.219269c0.293945,-0.886505 -0.568359,-1.18013 0.580811,-1.483582c2.918701,-0.266937 6.388672,0.303452 9.024536,-0.556335l0.599243,-1.191391c4.060913,-0.559128 8.71936,0 12.189331,-1.418961c-1.453003,-0.866837 -2.907349,-2.34201 -4.652832,-2.608917c0.292603,-0.297867 0.292603,-0.297867 0.292603,-0.594315c-4.360474,0.296448 -6.973999,-2.337769 -11.064209,-2.337769c-0.270142,-2.017456 -4.062134,-0.861191 -4.337891,-3.763779c1.758301,-2.023056 6.68689,-0.887909 9.881226,-0.887909c0,0.316132 -1.453125,0 -0.292603,0.316132c5.520874,1.159058 10.173706,0.864014 15.10791,-1.746323c0.879272,-1.153458 3.786499,-0.583054 3.786499,-2.333572c8.158203,-1.723816 15.407715,4.379135 22.991882,0.864029c-0.2995,0 -0.616089,0 -0.616089,-0.272568l2.62616,-1.16185c0.597839,-1.153427 0,-1.153427 0,-2.601898c-6.388733,0 -13.070007,-6.972626 -18.596313,-5.538193c-4.952515,-2.610352 -11.920654,-0.564789 -17.435913,-2.039948c0,-1.729431 -4.664063,-0.869659 -6.411133,-2.021667l0.592285,-0.571808c-3.205811,-0.316101 -5.5448,-2.329346 -7.566162,-4.077057c5.520874,-0.868256 11.908081,0.588654 18.033691,-0.297867c5.226807,-1.747711 10.162598,-2.61174 14.832397,-4.651657c7.243835,-0.271149 13.643738,0.32312 21.216736,-0.570404c-0.592163,-1.723846 2.045044,-0.854187 2.905945,-1.723846c-0.860901,-0.880875 1.747009,-0.880875 0.856567,-2.329346c-2.901733,-0.299255 -6.399902,-2.046967 -9.009033,-2.611725l0.299561,-0.292267c-3.211243,-1.182907 -5.81897,-3.471512 -8.720764,-3.20459l0.286987,-0.266922c-7.560364,0.266922 -15.418884,1.153442 -22.668396,0.564774c-4.648682,-1.74353 -9.312744,-4.360855 -13.380737,-7.26062c1.752686,-1.747711 2.613403,-2.628601 4.343506,-3.498245c0.614746,-2.901169 -3.780884,-1.723831 -4.067749,-4.053177c5.81897,-1.452698 11.058472,-2.320938 16.579346,-4.352448c0,-1.458298 3.505066,-1.733673 2.907227,-2.617371c5.250854,-1.750534 11.63385,0.272552 16.286804,-1.750534c4.354797,-0.265518 6.405579,-1.448441 9.611084,-4.053185c0.275757,-4.352432 -5.81897,-2.023071 -8.726379,-3.19899c-6.105896,-3.474365 -13.671875,-5.244553 -20.65271,-4.627792c-5.239502,2.288605 -11.937622,1.428802 -18.028076,1.153427c-2.308105,-2.329346 -5.813354,-1.153427 -8.12854,-3.494019c0.569702,-1.452698 2.913086,-2.034332 3.205688,-2.903976c5.204224,-2.604721 10.737793,-3.471542 15.401855,-5.51149c-0.303833,-0.292236 -2.050659,-1.475174 -1.1604,-1.159058c-3.503662,-1.744904 -6.703735,-1.744904 -9.909302,-3.225693c-5.515137,-0.854187 -11.915039,-0.272568 -17.435913,-1.129562l0.292603,-0.295029l-4.098755,-1.153427c0.327759,-1.180145 2.370117,0 2.915771,-1.180145c0,0 -0.545654,0.293625 -0.545654,0c3.45166,-0.866837 7.536499,-0.866837 11.334106,-1.164658c7.243896,-2.007629 13.064209,-7.551437 19.756714,-7.843674c4.067871,2.039948 7.841614,-0.564774 11.903809,-0.564774c0.614746,-1.449875 3.228149,-2.608917 2.906006,-4.648865l-7.536377,0c-0.873535,-2.343399 -4.952515,-0.86824 -6.997681,-2.021667c0,-0.321732 0.316406,-0.321732 0.614624,-0.321732c-1.775146,-1.72525 -4.951172,0 -5.543335,-2.290024l-8.134277,-0.886505c0,0 0.274414,-0.295029 0.568359,-0.295029c-14.241455,-3.199005 -28.480347,-0.564774 -42.432129,-1.153442c0,-1.451279 2.025513,-1.750526 2.32373,-2.610336c4.657227,-2.634216 9.602661,-3.193382 14.53125,-4.943901l-0.289795,-0.29644l4.081909,-1.152031l-0.879028,-0.571808l2.904541,-1.178719c0.589355,-0.861214 1.749878,-2.901161 2.042358,-4.065826c-0.29248,-0.269745 -0.88208,0 -1.154785,-0.269745c-0.887573,0.564781 -0.887573,0.864014 -0.887573,1.43441c-3.768188,-0.869629 -7.294556,-1.729446 -11.038818,-1.729446c-0.589233,-2.03994 -4.357422,-0.588661 -5.245117,-2.610344c-7.838867,-1.475159 -16.852173,0.271149 -24.140991,-0.299248c4.381592,-3.782043 11.057007,-4.079872 14.265503,-8.405609c-7.565918,0.854187 -16.023804,-0.299255 -24.427979,-1.185753c0.305176,-0.292229 0.57251,-0.292229 0.870728,-0.292229c-2.018433,0 -4.365967,-1.159058 -6.381592,0.58445c-0.616211,8.418266 -3.519287,15.40773 -4.367554,24.118217c1.157715,0 1.730103,0.570404 2.591064,0.864021c-0.565552,0.295029 0,0.295029 -0.565552,0.564774c2.901855,-0.269745 2.607788,2.634232 4.949707,2.90538c3.475708,3.19899 7.243896,6.66774 10.763184,9.890625c3.45166,4.922821 7.83313,9.869537 11.334106,15.091614c4.928589,7.255005 8.407104,14.522644 11.926392,22.657135c9.591309,22.641655 6.678345,51.09684 2.617554,76.663521c-2.910156,17.693542 -8.428101,34.558167 -13.090942,51.981964c-0.881958,0.292221 -1.453003,1.153473 -2.334839,0.570389c0.565308,-2.610336 -2.910278,-2.888535 -2.337891,-5.220688c-4.66272,-4.065826 0.31665,-10.441345 0.887695,-15.38385c6.970825,-25.839233 16.281006,-55.474548 12.216064,-81.318008c-0.597778,-2.330765 0.296753,-4.376328 -0.316528,-5.80513c-2.906006,-12.474274 -5.204224,-22.957756 -11.633789,-33.691338c-3.45166,-8.704865 -11.011963,-14.812057 -15.372437,-22.074066c-3.797607,-2.312485 -5.816162,-5.51149 -9.042725,-8.421082c-3.475708,-0.289413 -4.655762,-4.077072 -7.836182,-4.647461c0.275757,0 0.275757,-0.293625 0.592285,-0.293625c-2.906006,-1.723846 -6.40564,-3.470154 -9.312866,-5.510094c0.26709,-1.153442 2.025391,-0.594276 2.907227,-0.594276c4.652954,-0.559166 3.792236,-5.781235 6.089111,-8.70768c0.887451,-10.733574 4.387085,-22.940895 4.084717,-32.804825c-3.768188,7.55143 -5.816162,18.30748 -13.652222,23.230309c-2.066162,3.49263 -5.517944,3.199005 -7.260742,5.532562l0.265869,0.271149c-2.315063,0.594284 -2.906006,2.339195 -5.520874,3.199013c-2.604858,2.611732 -1.725708,7.850662 -5.813232,7.534569c-2.341919,-2.013252 0.568237,-6.962776 1.184326,-9.574516c1.725708,-4.058815 6.671387,-3.763771 9.883911,-6.37973l0,-0.290825l3.765503,-1.451279c0.590698,-0.588661 0.881836,-1.159058 1.163208,-2.013252l-8.141235,-1.185745c0,0 0.305176,-0.292221 0.572388,-0.292221c-4.064941,-0.567589 -8.993652,-0.861214 -13.359619,-0.272552c0.303833,0.857002 -0.88623,0.857002 -1.173096,0.857002c-5.226807,2.617363 -5.523438,9.869537 -6.381592,13.640343c-4.070557,0.880875 -8.155151,3.198997 -12.501587,4.949524l0.272827,0.289413c-3.178711,0.297836 -4.357544,2.610329 -7.560303,2.909576l0.296753,0.283791l-4.364624,1.440056c0.281372,0 0.589478,0 0.589478,0.316109c-6.129883,2.899734 -11.623901,5.487595 -17.144775,8.121826l0.275757,0.266937l-4.346313,1.475159l0.278442,0.297836l-3.185913,1.448486l0.281372,0.29924c-3.478394,1.424576 -7.269165,2.604721 -9.616821,4.922836l0.327759,0.275345l-3.498047,1.175919l0.265747,0.299255c-3.768188,2.031494 -8.99646,4.934067 -11.899536,6.962784c-5.222656,2.894104 -10.467773,3.488403 -15.70166,4.941101l0.305298,0.271118c-3.208374,-0.564758 -3.797607,2.903992 -6.710815,3.19902c-1.147583,1.452682 -3.173096,3.47435 -3.785034,5.521317c-6.383057,7.278885 0.316406,15.695732 -2.907349,22.952141c-0.272949,2.903961 4.384277,1.135178 5.23938,2.604706c7.003418,1.164703 13.681885,0 20.647217,1.164703c0,0 -0.289795,0.266937 -0.58374,0.266937l6.681152,0.316101c2.333496,0.570374 1.154785,2.023071 1.468384,3.474365c-6.399902,2.628571 -11.623779,5.814941 -17.757813,8.145691c0.316406,0 0.613281,0 0.881836,0.297867c-2.311035,0.855591 -4.333618,1.42598 -6.381592,2.288605c-1.154785,2.039932 2.903076,1.475174 2.047974,3.21727c2.613281,0.869629 1.731445,1.723831 4.333618,2.59346c-0.268555,0 -0.268555,0.316116 -0.56543,0.316116c0.56543,1.159058 2.042358,0.561951 3.202881,1.454071c-0.292603,0.275375 -0.614868,0.275375 -0.88208,0.275375c0.88208,0.854202 2.904663,0.283798 3.174805,2.031509c4.661255,2.045563 9.906372,1.161865 14.859009,-0.296417c-0.322144,-1.451294 1.427612,-0.88089 2.309448,-1.451294l-0.267212,-0.283798c2.025513,-1.167496 2.904663,-2.915192 5.52356,-3.47435l-0.327759,-0.295044c3.229614,-2.046967 6.703857,-4.355225 10.206177,-6.375504c6.1073,-2.628616 13.060059,-2.902588 19.194092,-4.38475c3.202759,2.339172 6.381592,5.81073 9.56189,7.856262c4.379883,-0.294998 5.261963,2.332199 9.608398,1.723877c5.534668,-0.866852 11.628052,-2.29425 16.556519,-5.195389l-0.275513,-0.297867c3.184448,-0.88089 4.360352,-4.086884 7.270386,-4.651672l-0.299438,-0.295044c3.502441,-2.315277 4.384277,-7.256378 8.457642,-7.55423c1.450195,2.045563 -0.894409,4.355255 -2.049194,5.803711c-1.476929,2.344818 -4.066528,4.651672 -6.109009,7.559875c-3.475586,3.199005 -6.1073,4.060181 -9.014648,6.375519c-3.474243,0 -4.95105,3.204605 -8.429443,3.204605c0.292603,0 0.881836,0 0.881836,0.283798c-2.60791,0.893524 -6.134033,0.299255 -8.425415,1.747711c-2.637329,0.297852 -4.386963,0.862625 -5.540527,2.903961c-5.228149,5.809357 -12.193481,10.756058 -16.562256,17.135773c-13.670532,14.805023 -22.683838,32.825897 -33.74646,49.957458c-1.749878,2.305496 -4.339355,4.334167 -6.954102,6.666367c-2.631714,3.787643 -6.105957,6.702835 -8.720703,10.757431c-3.792236,3.474365 -4.948486,9.008362 -7.269287,13.928345c-3.226685,-2.042725 -6.134033,-5.224854 -9.609619,-6.971161c0,0 0.299438,-0.29364 0.572388,-0.29364c-2.025513,-1.152039 -3.769653,-2.329376 -5.19873,-3.189178l0.268677,0l-2.630371,-1.728058l0.313843,-0.313293c-3.232422,-0.280975 -1.476929,-2.027298 -4.660156,-2.915207c-6.399902,-6.663528 -12.488892,-14.508591 -18.030762,-22.047379c-0.568237,-4.079849 -2.905884,-7.551422 -4.066284,-11.31517c-1.157715,-0.304886 -2.315308,-2.044174 -2.315308,-3.211655c-3.02417,-0.543732 -2.453125,-2.621582 -5.365967,-2.853424c-7.241211,3.679504 -16.485107,0 -22.276001,7.217087c-1.433228,4.648895 -4.65564,8.123245 -6.681152,13.367783c-4.633301,6.375519 -12.512939,12.17923 -16.260742,18.842758c-4.091064,2.634232 -4.975708,5.538193 -8.723511,8.145737l0.296021,0.29364c-3.522095,2.915192 -6.701538,5.817719 -10.194824,8.716095c-6.704468,3.184937 -6.977295,12.204529 -8.72644,17.701935c0.591553,4.372101 1.474121,6.12265 2.338501,10.74762c2.318115,8.148529 -3.223877,14.809235 -7.288086,20.323547c-3.768188,2.34198 -8.108154,4.373505 -12.199341,4.373505c0.566284,0 0.299683,0.567596 0.299683,0.859802c3.492554,0 6.69519,0 9.602661,1.166077c0.86438,1.152069 1.429688,3.482788 1.72583,4.939697c-1.453613,4.36087 -1.453613,11.608826 -2.611206,16.537292l1.43042,0.889313c-0.272827,0.27536 -0.545044,0.567596 -0.545044,0.864014c5.81604,1.147827 12.175293,0.269775 17.444336,-0.296417c0.544922,-1.456909 4.064209,-0.859833 5.201416,-1.456909c2.637451,-1.458313 6.13269,-2.306885 9.335449,-3.471558c-0.295288,-1.732239 3.771729,-1.456909 3.452515,-2.903961c4.975708,-3.786255 4.087524,-11.929138 5.543945,-17.12735l-18.331909,-0.608337c0.887573,-1.423187 -1.137207,-2.58786 0,-4.057373c4.067139,-1.428833 9.040161,-2.610382 13.675415,-4.039154c0.589355,-3.512299 0.858765,-7.557068 3.771851,-9.594177c1.766724,-3.787659 6.129761,-5.222076 9.33252,-7.821198c3.183105,-1.188538 -0.884766,-4.377716 0,-6.70285c-1.473511,-1.440033 -1.749146,-3.494019 -2.633789,-5.220673c-2.634521,-2.33075 -4.067871,-4.648865 -7.270508,-5.800903c-0.292603,-2.03714 2.045898,-3.495422 2.907349,-5.514313c8.42749,-8.142853 17.151001,-14.810638 24.44397,-23.226105c0.540283,-0.616714 1.427734,-0.886459 2.288574,-0.616714c3.229492,-0.864044 2.341919,1.770157 4.68396,2.634186c2.610596,4.650299 7.266235,7.856308 9.286133,11.620102c3.205566,5.800903 7.542114,10.453979 8.723511,16.254883c4.087524,6.972595 3.475586,13.926941 6.108765,21.203003c0.594971,1.440033 1.749756,2.329376 2.043823,3.787659c3.184326,2.306885 8.992188,4.917206 13.382202,6.362885c4.339111,-0.561981 4.928467,3.201813 8.990601,2.34201c0.278687,-6.39801 -2.312378,-13.949432 -0.269897,-21.500885c1.154785,-2.325134 2.025513,-5.514282 3.45166,-8.418243c1.181519,-0.861237 1.746948,0 2.634644,0.561951c-3.178955,9.588562 -0.565552,18.609528 1.160278,27.606628c-0.571045,3.471527 1.749756,5.514313 2.022705,8.716095c-4.636108,3.465942 -9.269287,1.153442 -14.221802,1.153442c0.570923,-0.580231 1.160278,-0.299255 1.744019,-0.299255c-5.23938,-0.561951 -9.597046,-2.33493 -14.847656,-3.196167c0.316406,0 0.316406,-0.292206 0.606201,-0.292206c-8.718018,-0.262756 -15.141846,-7.235352 -23.54895,-8.411255l0.568237,-0.29364c-3.181641,-0.567566 -6.384399,-1.750519 -9.28894,0c0.293945,0 0.838379,-0.280975 0.838379,0.29364c-5.19873,1.46814 -6.651733,9.008331 -8.720703,13.352325c-6.362061,8.148529 1.749634,15.411957 2.06897,23.227509c0.565552,3.790466 2.315186,7.57251 2.315186,10.733551c1.157593,14.52829 1.43335,29.654999 3.498169,43.879822c1.157593,3.196198 4.633301,5.220673 5.494019,8.394379c2.638794,0.316101 4.381592,2.902557 6.97522,2.902557c-0.27002,0.316101 -0.27002,0.316101 -0.545654,0.316101c1.154785,0.878082 2.907349,0.280975 3.768188,1.721039l-0.316528,0c2.634521,0.597076 3.794922,2.622986 6.429443,3.208832l-0.295288,0.292206c2.042236,1.744904 3.770874,2.599091 5.496826,4.647461c0.887573,2.318146 0.610474,4.941101 2.066284,6.96698c0.841187,4.917236 1.452881,9.294952 0.292603,14.786774c2.025391,1.205414 1.725708,-2.014648 3.185791,-2.28299l-0.28125,-0.304871c1.168823,-1.463928 3.184448,-0.585846 4.644409,-0.585846c2.60791,3.489838 6.103149,5.807922 9.286255,8.991486c0.881958,1.463898 2.042358,2.903961 2.907349,4.63623c1.160522,0.30484 3.519287,0.890686 4.380127,-0.538116c1.1604,-1.463928 2.318115,-2.903961 3.478394,-4.671326c4.928711,-11.906677 12.494629,-26.998322 4.38147,-38.892334c-2.631714,-1.768799 -3.519165,-4.671356 -5.81189,-5.795288c-3.202759,7.503662 -6.70105,11.882782 -9.608398,19.434235c-1.476807,0 -3.202759,-0.316132 -4.380127,-0.889343c0.884766,-6.931854 4.380127,-13.627686 7.287476,-19.751709c-2.323608,0 -4.657104,0 -6.40271,-1.170319c-0.570923,-1.123932 -1.731445,-2.306854 -2.610596,-3.442047c-1.735596,-7.000702 0,-12.492523 1.72583,-20.641052c-0.54834,-0.561951 -2.298218,0.316132 -2.025269,-1.159058l-10.449463,-1.146423c0.841187,-0.280975 1.728516,-0.280975 2.590942,-0.280975l-6.672852,0c0.289673,0 0.855103,0 1.177246,0.280975c-3.228149,-0.280975 -6.135376,1.74353 -8.432251,0.268341c-1.744263,-11.039825 -1.744263,-22.079681 -2.043823,-32.807617c6.681152,-2.30545 13.380737,2.34201 20.360107,3.787659c-0.327881,0.27536 -0.597778,0.567596 -0.876221,0.567596l4.073364,1.1745l-0.620361,0.561951c2.918579,0.304901 3.803345,2.622986 6.709351,2.915222l-0.887451,0.866852c1.476807,0.292206 2.912964,0.292206 4.084717,0.854156l-0.858154,0.889343c1.157593,0.316101 2.591064,0.316101 3.4729,1.159058l-0.56543,0.574585c2.58667,0 3.474243,2.621582 5.810547,2.621582l-0.589233,0.561981l3.182983,1.486389l-0.545776,0.550751c3.451782,-0.550751 2.904541,2.915192 6.088989,2.610321l-0.571045,0.890717c1.160522,0.268341 2.315308,0.268341 3.475708,1.159058c-0.278564,0 -0.278564,0.303467 -0.571167,0.303467c4.637573,2.33075 9.567505,4.355225 13.950439,7.259186c4.654297,1.147827 9.609741,2.891327 14.53833,4.917236c3.495239,0.292206 8.125732,1.475159 11.334229,0c0.881836,-2.025909 2.907349,-3.453308 3.786499,-5.222076c6.115601,-9.002716 6.381592,-19.445465 6.97937,-29.33609c0.571045,0.591461 1.749756,-0.865417 2.30957,0.286591c2.642944,11.910889 -0.559814,24.132294 -1.154785,36.038971c3.176147,0.269745 3.176147,3.184906 6.405518,3.184906l-0.589355,0.573242c0.886108,0.574585 2.910278,0.574585 2.910278,1.756134l3.495239,1.417572l-0.316406,0.303436l2.904419,1.182983l-0.867676,0.878052c1.189819,0.280975 2.644287,0.280975 3.780762,0.842957c-0.870728,0.304871 -0.281372,0.597076 -0.281372,0.866821c1.16333,0 1.752563,0.878082 2.907349,1.194183l-0.583496,0.281006c3.202637,2.634186 6.989136,2.634186 9.585693,5.209412l-0.275757,0c3.495361,0.866821 6.399902,3.501068 9.611084,5.244568l-0.299438,0l4.064819,1.428802l-0.589233,0.585846l4.062134,1.181519l-0.56543,0.597107c1.42627,0.269745 2.903198,0.269745 3.768188,1.428802l-0.292603,0c0.863647,0.889313 2.640137,0.889313 3.768311,1.147827l-0.273071,1.170288c3.792236,-1.170288 4.073608,2.891327 7.858765,2.599091c0,0 -0.286987,0.292236 -0.614868,0.292236c5.816284,2.622986 12.813965,5.245941 18.331909,6.404999l-0.265747,0.584442c7.838745,0.29364 16.555298,4.917206 23.52771,7.235321c6.105835,-0.268311 8.720825,2.634247 14.536865,2.634247c0,0 -0.267212,0.269745 -0.267212,0.574615c6.672852,1.170288 12.761841,2.329346 19.188477,2.902557c0,0.29361 -1.181519,0 -0.614624,0.29361c3.797729,1.170319 8.151123,0.573212 11.94873,1.451294l-0.322021,0.316101c10.19751,-0.316101 18.625732,3.184937 28.805054,3.184937c-0.298096,0 -0.298096,0.268372 -0.592102,0.268372l3.200012,1.147797c1.184326,9.037842 1.454285,17.151215 2.614807,25.861725c1.182922,3.184937 2.045105,6.954346 2.906006,9.869507c3.20697,2.634277 -1.723083,3.220093 -0.292603,5.806519c-1.430481,-0.561951 -2.021179,-2.902527 -3.181702,-3.780579c-2.046509,-4.063049 -2.901794,-6.97821 -5.246521,-10.420288c-2.039612,-5.525513 -4.066345,-11.063721 -4.951111,-16.578033c-0.275635,-4.061615 -6.675537,-1.721008 -9.87561,-2.902557c0.58667,-0.304871 1.476929,-0.304871 2.039551,-0.304871l-17.148926,-1.123932c0,-0.210724 0.223633,-0.280975 0.457153,-0.316101c-4.336426,-1.170288 -9.521118,-0.878082 -13.538208,-1.732269c0.272827,-0.269745 0.589233,0 0.879028,0c-1.742676,-0.866821 -3.51355,-1.159027 -5.534912,-0.866821c3.792236,11.017365 8.14978,22.946533 15.123535,32.535095c4.658569,4.343994 8.720825,9.564636 12.500244,13.932556c2.596436,-0.29364 1.44873,2.610352 3.786499,2.294189c2.315308,5.244568 8.720703,8.14856 10.741943,13.943848c0.294067,12.808624 2.046631,22.959137 -1.723022,35.743927c-9.611084,11.601807 -16.878906,26.13147 -27.052612,35.731262c-3.773804,3.734314 -8.447876,5.806519 -12.494507,9.542236c-6.426636,4.085449 -9.878418,12.210144 -15.428711,17.13855c-4.922974,2.03717 -11.352539,4.671387 -16.840942,4.671387c-0.327759,1.428772 1.744141,1.733643 1.744141,2.903931c0.292603,8.980286 -7.565918,16.812683 -8.430908,25.839294c2.303833,0.292175 4.340576,2.586426 7.246582,1.721008c5.817627,2.340576 13.656372,1.181519 20.354492,0.865417c3.202759,-2.024475 6.994873,0.316101 9.585815,-2.29425c6.422363,-2.903931 10.490234,-9.318787 12.518555,-15.992188c-0.575317,-0.30481 -1.74707,-0.574585 -1.160522,-0.842957c-5.54187,0 -11.358032,-2.060974 -16.281006,-2.365845c-0.57251,-1.427429 0,-3.758179 0.582275,-5.501648c6.110229,-1.428833 14.538452,2.072266 19.191284,-2.049805l-0.316528,-0.268311c2.637329,-2.014648 4.090332,-5.210876 7.56604,-5.807922l-0.275757,-0.292236c5.520874,-1.463928 11.633911,-4.039124 16.85498,-4.039124l0,-0.316101l4.360352,-0.573242c0.569702,-4.086914 0.569702,-10.174438 -2.337646,-13.076965c-0.568359,-1.756165 -2.901855,-2.622986 -2.296997,-4.648865c7.542114,-9.575928 14.539795,-21.201599 24.115662,-28.436951c3.481323,-2.306885 7.572998,-3.208801 10.479065,-4.941101c4.935608,-3.184937 10.151184,-5.819153 13.643677,-9.307556c0.575256,-1.744934 4.102905,-5.209412 2.320923,-8.113464c-1.136597,-7.294312 -2.602173,-14.810669 -3.468628,-22.384491c1.147705,-0.29364 2.332031,0 2.906006,0.889282c-0.303955,0.304871 -0.303955,0.304871 -0.573975,0.304871c4.055237,1.123901 6.95697,5.185577 11.023315,6.660675c-0.274292,0 -0.274292,0.269775 -0.568176,0.269775c3.19989,0.597046 4.654236,3.793335 7.853577,4.671387l-0.860901,0.866821c1.434753,0.281006 2.613403,0.281006 4.036926,0.865356c-0.264465,0.304932 -0.562622,0.304932 -0.855225,0.304932c5.544678,2.013184 10.467651,5.503052 16.549683,6.684631c-0.261658,0 -0.261658,0.269714 -0.556946,0c1.17865,1.721008 4.948242,0.269714 5.516541,2.282959c6.681274,7.551453 14.532715,15.723816 20.640015,23.848511c2.050903,3.184937 -0.286926,5.514282 -1.147705,8.406982c-3.775269,13.346741 -10.771606,24.678772 -17.745361,36.012268c-7.561768,7.854919 -13.081055,13.662842 -18.895874,22.641663c-1.454346,1.452698 -3.198608,3.489807 -5.519409,4.660095l0.267212,0.269775c-6.082642,3.207397 -12.48822,6.111389 -18.869812,7.562683c1.429077,1.147766 2.613403,3.477173 2.320923,5.257202c-2.052185,7.235291 -4.952637,13.627686 -9.296082,18.837097c-1.476929,1.486389 -1.177246,2.622986 0.2995,3.501038c3.170532,0.889343 5.8078,1.721069 9.289063,2.318176l-0.29248,0.268311c8.439453,1.218079 19.468933,1.218079 27.908386,0c8.428223,-2.586487 13.655029,-9.272461 15.992737,-17.982971c-0.860779,-0.303467 -2.045105,-0.303467 -2.045105,-0.878052l-10.14978,-1.146423l0.27002,-0.316101c-2.613403,-0.866821 -6.382996,0 -8.990845,-1.159058c1.13092,-2.025879 1.72168,-4.332764 3.468628,-5.514282c5.820374,0 12.495972,-0.281006 17.154602,0.292236c3.192932,-4.027954 5.539001,-7.832458 9.581482,-11.309631c3.20697,-2.318115 7.291748,-4.074219 10.76593,-4.33136l-0.261536,-0.328735l11.005005,-1.159058c1.758179,-4.647461 0.610352,-9.588562 -2.590942,-12.49115c-0.585083,-1.440002 -2.343384,-3.454651 -3.491089,-3.770752c-1.161865,-1.451294 -2.01709,-3.172302 -1.752625,-4.952393c3.204163,-8.697815 6.968079,-16.530212 11.069763,-25.545593c6.096069,-12.749634 18.870544,-20.323547 21.21106,-34.841919c-0.301025,-4.02655 2.039551,-9.307678 -2.616211,-11.320923c-1.47406,-2.013184 -2.905945,-3.196106 -3.7724,-4.33136c-2.906006,0 -1.769531,-2.634155 -4.382935,-2.634155c-2.903137,-3.173706 -5.820374,-7.551453 -8.422546,-10.455414c-4.067749,-6.965576 -8.720703,-11.906677 -12.225952,-18.310303c-1.746948,-1.136597 -3.769592,-2.611755 -4.337769,-3.770813l-0.315186,-2.024475c6.692505,-13.370605 16.009644,-25.850464 22.094482,-38.623993c6.118652,-13.650177 15.131897,-33.097046 6.979431,-49.639954c1.17865,-0.620972 2.337708,-0.620972 2.633118,-1.767395l4.652893,0c2.050781,3.488403 3.479858,5.268463 5.226868,8.440765c3.20697,0.269745 1.752563,2.306885 4.658508,2.622986l-0.883301,0.549316l3.786499,0.597076c0.596375,0.878082 -0.880493,0.561981 0,1.159058c1.451599,0.280975 2.905945,0.280975 4.365967,1.147827c-0.286926,0 -0.286926,0.292236 -0.568237,0.292236l4.329468,1.475159c-0.286987,0 -0.286987,0.280975 -0.557007,0.280975l3.176025,1.452698c-0.267273,0.292206 -0.267273,0.292206 -0.573853,0.292206c0.573853,0.585846 2.908752,1.159058 1.735657,2.013245c4.084717,4.671356 0,12.211548 -2.022644,17.725861c3.769592,-4.33136 5.539063,-10.75885 9.314331,-14.529663c0.86084,-3.464539 1.158997,-6.638245 1.158997,-10.150543c0.86084,-0.280975 1.454407,0.280975 2.017029,1.147827c0.585144,2.915222 3.198547,3.501068 4.06781,5.538177c4.090332,1.159058 8.450684,0.268341 12.811035,0.854187c0,1.780029 3.474243,1.182953 2.906006,2.903961l2.045166,0c0.568237,-3.184937 -0.323547,-6.381104 -0.886169,-9.296326c-2.905945,-4.33136 -8.155273,-7.235321 -9.024536,-12.749634c-2.039551,-1.767395 -3.761169,-3.196167 -5.215576,-5.209442c1.153381,-0.890686 3.176025,-0.328735 4.652954,0.538086l-0.585144,0.585846c1.147766,0.292236 2.63031,0.292236 3.761169,1.181549l-0.562622,0.269745c2.616211,1.451294 6.382996,1.170319 9.289001,0.316101c3.792114,-0.316101 4.380066,2.903961 8.152466,2.318115c1.161865,-0.620972 3.482666,-0.292206 3.207031,-1.767395l9.581543,-0.866821c0.891785,-2.306885 -1.445923,-3.793274 -2.017029,-5.490417l0.270081,0c-2.883484,-1.194183 -5.78949,-2.622986 -8.132813,-3.220062c-1.454407,-1.451294 -2.908813,-2.575226 -4.09314,-4.355255c-1.158997,0 -2.588074,-0.292236 -3.761169,-0.597076c-0.303772,-0.842987 -0.866455,-2.013245 0.292603,-3.161072c3.468567,-0.866852 7.561707,-0.597107 10.765869,0.550751c0,1.194153 2.613403,0.865387 3.477051,2.610321c5.519409,1.779999 8.152527,-3.442047 11.621094,-4.027924c-0.286926,0 -0.557007,0 -0.860779,-0.292206c1.164612,-1.182953 3.209778,-0.327332 4.636047,-1.182953c-1.156189,-1.159058 -0.858032,-3.745514 -3.184509,-3.464539c-0.877686,-1.744904 -4.059326,-0.878052 -5.806335,-1.744904l0.590759,-0.597076l-3.797729,-1.159058c-0.585144,-1.744904 -2.911621,-3.172302 -3.198547,-4.063019c-2.053589,-0.889313 -2.616211,-2.634216 -4.953918,-2.902557c0,-0.585846 0.317871,-0.585846 -0.264465,-1.159058c2.309631,-1.147827 5.218384,-0.258514 7.550476,-0.585846c0.573914,-2.04837 3.479858,-1.159058 3.479858,-2.306885c3.499573,-1.75473 6.993469,-2.902557 10.197632,-2.04837c0.869324,1.451294 4.337891,0.878082 6.388672,0.29364l-0.298157,-0.29364l2.90033,-0.854187c-0.568237,-1.767395 1.454407,-1.48642 0.866455,-2.915192c-0.562622,0 -1.744141,0 -2.014221,-1.159058l0.270081,-0.316132c-4.06781,-2.013245 -7.843079,-3.758148 -10.749023,-6.940277c-6.692505,-1.77301 -13.669067,1.133789 -19.756714,-0.597107c-1.16748,-1.750519 -4.658569,-1.445648 -6.979431,-2.037109c0,-0.292236 0.303833,-0.292236 0.573853,-0.292236c-3.792114,-0.573181 -7.567322,0.883698 -10.473328,2.03714l0.298218,0c-2.028259,0 -3.772461,1.753326 -5.519409,0.597076c2.014221,-2.634216 3.761169,-4.952332 6.692505,-5.800873c1.732849,-1.750549 5.2099,-3.501068 8.110291,-4.068665l-0.270081,-0.316101c6.399902,-1.726654 14.535522,0.316101 21.239258,-1.434418l-0.292603,-0.292236l4.06781,-1.177307l-0.303772,-0.280975c2.613403,-0.859833 3.479858,-2.305481 5.249268,-3.763794c4.045349,-0.286591 7.536438,1.129547 11.334167,0.866852c2.320862,-1.750519 5.814758,-2.020294 6.976624,-4.65448c2.014221,-0.883698 4.658569,-0.567596 6.672791,-0.262756c3.20697,0.859833 3.20697,-2.347595 6.112976,-2.347595c0,-1.175934 1.454346,-1.445679 2.017029,-2.599121c-4.067871,-1.744873 -7.829041,-4.952332 -12.189392,-7.281677c-2.045166,-2.295624 -6.388611,-0.574615 -9.90509,-1.434418c0,-2.329346 -2.292725,-0.292236 -2.905945,-2.03714c3.491089,0.567596 6.422424,-2.020264 9.604065,-2.020264c0,-0.316101 0.298218,-0.590057 0,-0.883698c3.20697,-2.013245 6.399902,-3.763763 9.595642,-3.471527c2.332092,0.264099 7.277588,4.039124 11.052795,2.611725c-0.292542,-1.750519 2.039551,-0.866852 2.906006,-1.750519c-0.568237,-0.861206 1.161865,-1.750549 0.855225,-2.622986c-1.423462,-0.281006 -3.198547,-0.281006 -4.630432,-0.872467c-0.590759,-0.561981 -2.906006,-2.318115 -4.079102,-3.172302c0,-0.304871 -0.303772,-0.883698 0,-1.153442c-3.479858,0.561981 -2.613403,-2.645447 -5.823181,-2.645447c0,0 0.070313,-0.05899 0.210938,-0.110992c-3.358887,-1.018555 -6.453308,-1.04245 -10.087891,-1.04245c-3.474243,-2.903961 -7.859924,-6.093109 -12.512878,-7.246552c0.886169,-3.208832 4.652954,-0.878082 7.291687,-1.188568c-0.298218,0.310486 -0.298218,0.310486 -0.599182,0.310486c2.34613,1.456909 5.820374,0.878082 8.428162,0.573212c4.360352,-1.750488 7.572937,-4.917236 12.225891,-4.349609c1.161865,2.312469 5.221191,0.29361 6.107361,2.599121c4.343506,0.866791 8.990784,0 11.902405,-2.03714c0.298218,-1.129608 2.337769,-2.29425 2.045166,-3.471588c-4.062195,-0.292175 -6.973816,-1.726593 -10.172302,-3.194794c-1.730103,-2.318115 -4.661438,-3.179321 -6.107361,-5.813538c-1.161804,-0.854187 -3.482666,0.299255 -3.775269,-1.726624l-17.441467,-0.580261c-3.212585,-1.749115 -5.519409,-3.766541 -9.018921,-3.766541c0,-0.304871 0.590759,-0.304871 0.855164,-0.304871c-1.423462,-1.152069 -4.332214,-0.581665 -6.076355,-1.46817l0.866394,-0.571777c-2.920044,-0.859802 -6.411133,-0.289429 -9.319946,-1.152039c1.476929,-2.901154 5.814819,-2.901154 7.854309,-4.648849c4.06781,-0.292252 8.456299,-0.292252 12.225952,0c2.613403,2.61171 7.828979,0.570358 10.473328,2.61171c6.675598,0.859802 12.481934,0.581635 19.464172,0.289459c1.451538,-1.153473 4.065002,-2.017487 5.806274,-3.19342c0.8974,-1.43161 1.190002,-2.915176 2.914429,-3.776413c1.744202,-3.763779 0.292603,-10.161789 -2.34613,-13.355148c-0.568298,-3.20462 -5.193054,-4.917206 -4.329468,-8.718918c5.221191,-0.861221 9.581604,3.801712 14.5271,1.456894c0,-0.276779 -0.585144,-0.276779 -0.585144,-0.570404l2.906006,-0.88649c-1.159058,-1.153442 0.599182,-1.442856 0.869263,-2.013245z" id="path1364"/>
  </g>
 </g>
</svg>